<svg width="611" height="611" viewBox="0 0 611 611" fill="none" xmlns="http://www.w3.org/2000/svg">
<mask id="mask0_0_1" style="mask-type:alpha" maskUnits="userSpaceOnUse" x="0" y="0" width="611" height="611">
<circle cx="305.5" cy="305.5" r="305.5" fill="#D9D9D9"/>
</mask>
<g mask="url(#mask0_0_1)">
<g filter="url(#filter0_d_0_1)">
<path fill-rule="evenodd" clip-rule="evenodd" d="M243.766 910.604C-15.0984 1117.3 -148.942 1484.82 -431.914 1562.39C-708.168 1638.11 -937.161 1255.96 -1003.67 1083.29C-1058.21 941.679 -77.6066 812.782 37.5402 615.598C142.202 436.37 -433.834 388.665 -251.161 232.898C-13.3538 30.1157 217.87 -357.354 445.325 -343.244C688.962 -328.13 356.123 112.686 449.8 276.382C530.447 417.307 986.223 276.111 918.703 483.955C853.961 683.246 460.615 737.456 243.766 910.604Z" fill="#E12A62"/>
</g>
<g filter="url(#filter1_d_0_1)">
<path fill-rule="evenodd" clip-rule="evenodd" d="M562.979 140.211C575.585 248.271 702.669 362.376 647.814 447.348C594.261 530.304 344.075 499.669 242.88 476.991C159.887 458.392 414.686 195.181 360.399 123.602C311.054 58.5409 104.289 185.584 90.8098 107.116C73.2626 4.96466 -31.824 -136.874 47.6339 -188.095C132.744 -242.96 229.924 -64.9114 335.679 -50.7335C426.724 -38.5277 507.552 -179.026 582.041 -116.45C653.465 -56.4499 552.419 49.6904 562.979 140.211Z" fill="#FF7200"/>
</g>
<g filter="url(#filter2_d_0_1)">
<path fill-rule="evenodd" clip-rule="evenodd" d="M523.172 546.277C466.187 684.207 545.259 886.899 421.181 962.883C300.048 1037.06 14.3777 874.305 -94.2762 795.943C-183.386 731.677 304.843 538.869 286.368 424.471C269.576 320.489 -68.6164 371.541 -32.5296 269.215C14.449 136.004 -19.1148 -89.4372 112.457 -111.978C253.388 -136.123 253.011 129.454 372.941 199.749C476.189 260.267 669.265 129.681 718.498 243.243C765.705 352.132 570.908 430.735 523.172 546.277Z" fill="#218E8A"/>
</g>
<g filter="url(#filter3_d_0_1)">
<path fill-rule="evenodd" clip-rule="evenodd" d="M752.388 200.109C872.111 239.101 1048.19 138.351 1114.06 249.805C1178.38 358.613 1036.8 655.191 968.66 769.941C912.778 864.05 745.768 412.928 646.414 444.403C556.107 473.012 600.149 795.267 511.325 772.348C395.69 742.511 199.898 801.777 180.437 676.723C159.591 542.773 390.206 511.704 451.35 386.962C503.989 279.571 390.758 107.601 489.413 46.3667C584.008 -12.3479 652.097 167.446 752.388 200.109Z" fill="#FEB538"/>
</g>
<g filter="url(#filter4_d_0_1)">
<path fill-rule="evenodd" clip-rule="evenodd" d="M207.564 635.598C148.602 688.22 166.922 848.686 74.6852 830.349C-15.3623 812.447 -173.313 570.147 -230.737 468.239C-277.832 384.662 67.9986 519.726 74.5197 442.514C80.4469 372.333 -145.814 229.893 -106.062 187.694C-54.3113 132.757 -39.6269 -17.9496 48.8303 35.8781C143.58 93.5351 100.547 250.69 166.541 353.577C223.356 442.153 368.874 463.371 382.318 555.794C395.208 644.413 256.956 591.517 207.564 635.598Z" fill="#3B054F"/>
</g>
<defs>
<filter id="filter0_d_0_1" x="-1009.86" y="-343.619" width="1939.36" height="1923.81" filterUnits="userSpaceOnUse" color-interpolation-filters="sRGB">
<feFlood flood-opacity="0" result="BackgroundImageFix"/>
<feColorMatrix in="SourceAlpha" type="matrix" values="0 0 0 0 0 0 0 0 0 0 0 0 0 0 0 0 0 0 127 0" result="hardAlpha"/>
<feOffset dy="4"/>
<feGaussianBlur stdDeviation="2"/>
<feComposite in2="hardAlpha" operator="out"/>
<feColorMatrix type="matrix" values="0 0 0 0 0 0 0 0 0 0 0 0 0 0 0 0 0 0 0.25 0"/>
<feBlend mode="normal" in2="BackgroundImageFix" result="effect1_dropShadow_0_1"/>
<feBlend mode="normal" in="SourceGraphic" in2="effect1_dropShadow_0_1" result="shape"/>
</filter>
<filter id="filter1_d_0_1" x="14.2766" y="-198.56" width="651.21" height="708.343" filterUnits="userSpaceOnUse" color-interpolation-filters="sRGB">
<feFlood flood-opacity="0" result="BackgroundImageFix"/>
<feColorMatrix in="SourceAlpha" type="matrix" values="0 0 0 0 0 0 0 0 0 0 0 0 0 0 0 0 0 0 127 0" result="hardAlpha"/>
<feOffset dy="4"/>
<feGaussianBlur stdDeviation="2"/>
<feComposite in2="hardAlpha" operator="out"/>
<feColorMatrix type="matrix" values="0 0 0 0 0 0 0 0 0 0 0 0 0 0 0 0 0 0 0.25 0"/>
<feBlend mode="normal" in2="BackgroundImageFix" result="effect1_dropShadow_0_1"/>
<feBlend mode="normal" in="SourceGraphic" in2="effect1_dropShadow_0_1" result="shape"/>
</filter>
<filter id="filter2_d_0_1" x="-109.153" y="-113.524" width="838.97" height="1103.31" filterUnits="userSpaceOnUse" color-interpolation-filters="sRGB">
<feFlood flood-opacity="0" result="BackgroundImageFix"/>
<feColorMatrix in="SourceAlpha" type="matrix" values="0 0 0 0 0 0 0 0 0 0 0 0 0 0 0 0 0 0 127 0" result="hardAlpha"/>
<feOffset dy="4"/>
<feGaussianBlur stdDeviation="2"/>
<feComposite in2="hardAlpha" operator="out"/>
<feColorMatrix type="matrix" values="0 0 0 0 0 0 0 0 0 0 0 0 0 0 0 0 0 0 0.25 0"/>
<feBlend mode="normal" in2="BackgroundImageFix" result="effect1_dropShadow_0_1"/>
<feBlend mode="normal" in="SourceGraphic" in2="effect1_dropShadow_0_1" result="shape"/>
</filter>
<filter id="filter3_d_0_1" x="175.109" y="34.6716" width="959.303" height="756.21" filterUnits="userSpaceOnUse" color-interpolation-filters="sRGB">
<feFlood flood-opacity="0" result="BackgroundImageFix"/>
<feColorMatrix in="SourceAlpha" type="matrix" values="0 0 0 0 0 0 0 0 0 0 0 0 0 0 0 0 0 0 127 0" result="hardAlpha"/>
<feOffset dy="4"/>
<feGaussianBlur stdDeviation="2"/>
<feComposite in2="hardAlpha" operator="out"/>
<feColorMatrix type="matrix" values="0 0 0 0 0 0 0 0 0 0 0 0 0 0 0 0 0 0 0.25 0"/>
<feBlend mode="normal" in2="BackgroundImageFix" result="effect1_dropShadow_0_1"/>
<feBlend mode="normal" in="SourceGraphic" in2="effect1_dropShadow_0_1" result="shape"/>
</filter>
<filter id="filter4_d_0_1" x="-239.143" y="24.4454" width="626.305" height="815.355" filterUnits="userSpaceOnUse" color-interpolation-filters="sRGB">
<feFlood flood-opacity="0" result="BackgroundImageFix"/>
<feColorMatrix in="SourceAlpha" type="matrix" values="0 0 0 0 0 0 0 0 0 0 0 0 0 0 0 0 0 0 127 0" result="hardAlpha"/>
<feOffset dy="4"/>
<feGaussianBlur stdDeviation="2"/>
<feComposite in2="hardAlpha" operator="out"/>
<feColorMatrix type="matrix" values="0 0 0 0 0 0 0 0 0 0 0 0 0 0 0 0 0 0 0.25 0"/>
<feBlend mode="normal" in2="BackgroundImageFix" result="effect1_dropShadow_0_1"/>
<feBlend mode="normal" in="SourceGraphic" in2="effect1_dropShadow_0_1" result="shape"/>
</filter>
</defs>
</svg>
