<svg width="20" height="20" viewBox="0 0 20 20" fill="none" xmlns="http://www.w3.org/2000/svg">
<path d="M5.50977 17.8018C6.83126 18.5639 8.36453 19 9.99964 19C14.9702 19 19 14.9706 19 10C19 5.02944 14.9706 1 10 1C5.02944 1 1 5.02944 1 10C1 11.6351 1.43604 13.1684 2.19819 14.4899L2.20114 14.495C2.27448 14.6221 2.31146 14.6863 2.32821 14.7469C2.34401 14.804 2.34842 14.8554 2.34437 14.9146C2.34003 14.9781 2.3186 15.044 2.27468 15.1758L1.50586 17.4823L1.50489 17.4853C1.34268 17.9719 1.26157 18.2152 1.31938 18.3774C1.36979 18.5187 1.48169 18.6303 1.62305 18.6807C1.78482 18.7384 2.02705 18.6577 2.51155 18.4962L2.51758 18.4939L4.82405 17.7251C4.95537 17.6813 5.02214 17.6591 5.08559 17.6548C5.14475 17.6507 5.19578 17.6561 5.25293 17.6719C5.31368 17.6887 5.37783 17.7257 5.50563 17.7994L5.50977 17.8018Z" stroke="black" stroke-width="1.5" stroke-linecap="round" stroke-linejoin="round"/>
</svg>
