<svg width="21" height="20" viewBox="0 0 21 20" fill="none" xmlns="http://www.w3.org/2000/svg">
<path d="M9.30776 11.1923L14.1539 6.34619M19.1113 3.38867L15.0207 16.6833C14.6541 17.8747 14.4706 18.4707 14.1544 18.6683C13.8802 18.8396 13.5406 18.8683 13.2419 18.7443C12.8975 18.6014 12.618 18.0433 12.0603 16.928L9.46938 11.7461C9.38089 11.5691 9.3366 11.481 9.27749 11.4043C9.22504 11.3363 9.1645 11.2749 9.09645 11.2225C9.02151 11.1647 8.93486 11.1214 8.76577 11.0369L3.57192 8.43994C2.45662 7.88229 1.89892 7.60321 1.75601 7.25879C1.63207 6.9601 1.66033 6.62023 1.83169 6.34597C2.02928 6.02974 2.62523 5.84603 3.81704 5.47932L17.1116 1.38867C18.0486 1.10038 18.5173 0.956345 18.8337 1.07253C19.1094 1.17373 19.3267 1.39084 19.4279 1.66651C19.544 1.98283 19.3999 2.45126 19.1119 3.38729L19.1113 3.38867Z" stroke="white" stroke-width="2" stroke-linecap="round" stroke-linejoin="round"/>
</svg>
