<svg width="19" height="19" viewBox="0 0 19 19" fill="none" xmlns="http://www.w3.org/2000/svg">
<path d="M1.74791 4.64502L1.41669 8.28848C1.36763 8.82807 1.34289 9.10013 1.3878 9.3584C1.42792 9.58915 1.50806 9.81121 1.62496 10.0142C1.7563 10.2422 1.95043 10.4363 2.33647 10.8224L7.51197 15.9979C8.29901 16.7849 8.69274 17.1786 9.14795 17.3265C9.54964 17.4571 9.98304 17.4573 10.3847 17.3268C10.8414 17.1785 11.2382 16.7821 12.0302 15.9901L15.99 12.0303C16.7821 11.2382 17.1774 10.8424 17.3258 10.3857C17.4563 9.98406 17.4555 9.55115 17.325 9.14946C17.1766 8.69281 16.7819 8.29705 15.9898 7.50502L10.8271 2.34229C10.4375 1.95272 10.2427 1.75792 10.0136 1.62598C9.81068 1.50908 9.58862 1.4286 9.35787 1.38848C9.09743 1.3432 8.82297 1.36809 8.27431 1.41797L4.64449 1.74796C3.69973 1.83384 3.22705 1.87698 2.85738 2.08255C2.53145 2.26379 2.26277 2.53248 2.08152 2.8584C1.87698 3.22623 1.83432 3.69555 1.74929 4.63092L1.74791 4.64502Z" stroke="black" stroke-width="1.5" stroke-linecap="round" stroke-linejoin="round"/>
<path d="M6.71259 6.71297C7.10311 6.32244 7.10311 5.68928 6.71259 5.29876C6.32206 4.90823 5.68845 4.90823 5.29792 5.29876C4.9074 5.68928 4.90702 6.32229 5.29755 6.71282C5.68807 7.10334 6.32206 7.10349 6.71259 6.71297Z" stroke="black" stroke-width="1.5" stroke-linecap="round" stroke-linejoin="round"/>
</svg>
